<svg xmlns="http://www.w3.org/2000/svg" viewBox="0 0 800 20" width="800" height="20">
  <rect width="800" height="8" fill="#3cb44a"/>
  <rect y="8" width="800" height="4" fill="#288030"/>
  <g>
    <rect y="12" width="16" height="8" fill="#b45028"/><rect x="16" y="12" width="16" height="8" fill="#8c3719"/>
    <rect x="32" y="12" width="16" height="8" fill="#b45028"/><rect x="48" y="12" width="16" height="8" fill="#8c3719"/>
    <rect x="64" y="12" width="16" height="8" fill="#b45028"/><rect x="80" y="12" width="16" height="8" fill="#8c3719"/>
    <rect x="96" y="12" width="16" height="8" fill="#b45028"/><rect x="112" y="12" width="16" height="8" fill="#8c3719"/>
    <rect x="128" y="12" width="16" height="8" fill="#b45028"/><rect x="144" y="12" width="16" height="8" fill="#8c3719"/>
    <rect x="160" y="12" width="16" height="8" fill="#b45028"/><rect x="176" y="12" width="16" height="8" fill="#8c3719"/>
    <rect x="192" y="12" width="16" height="8" fill="#b45028"/><rect x="208" y="12" width="16" height="8" fill="#8c3719"/>
    <rect x="224" y="12" width="16" height="8" fill="#b45028"/><rect x="240" y="12" width="16" height="8" fill="#8c3719"/>
    <rect x="256" y="12" width="16" height="8" fill="#b45028"/><rect x="264" y="12" width="16" height="8" fill="#8c3719"/>
    <rect x="280" y="12" width="16" height="8" fill="#b45028"/><rect x="296" y="12" width="16" height="8" fill="#8c3719"/>
    <rect x="312" y="12" width="16" height="8" fill="#b45028"/><rect x="328" y="12" width="16" height="8" fill="#8c3719"/>
    <rect x="344" y="12" width="16" height="8" fill="#b45028"/><rect x="360" y="12" width="16" height="8" fill="#8c3719"/>
    <rect x="376" y="12" width="16" height="8" fill="#b45028"/><rect x="392" y="12" width="16" height="8" fill="#8c3719"/>
    <rect x="408" y="12" width="16" height="8" fill="#b45028"/><rect x="424" y="12" width="16" height="8" fill="#8c3719"/>
    <rect x="440" y="12" width="16" height="8" fill="#b45028"/><rect x="456" y="12" width="16" height="8" fill="#8c3719"/>
    <rect x="472" y="12" width="16" height="8" fill="#b45028"/><rect x="488" y="12" width="16" height="8" fill="#8c3719"/>
    <rect x="504" y="12" width="16" height="8" fill="#b45028"/><rect x="520" y="12" width="16" height="8" fill="#8c3719"/>
    <rect x="536" y="12" width="16" height="8" fill="#b45028"/><rect x="552" y="12" width="16" height="8" fill="#8c3719"/>
    <rect x="568" y="12" width="16" height="8" fill="#b45028"/><rect x="584" y="12" width="16" height="8" fill="#8c3719"/>
    <rect x="600" y="12" width="16" height="8" fill="#b45028"/><rect x="616" y="12" width="16" height="8" fill="#8c3719"/>
    <rect x="632" y="12" width="16" height="8" fill="#b45028"/><rect x="648" y="12" width="16" height="8" fill="#8c3719"/>
    <rect x="664" y="12" width="16" height="8" fill="#b45028"/><rect x="680" y="12" width="16" height="8" fill="#8c3719"/>
    <rect x="696" y="12" width="16" height="8" fill="#b45028"/><rect x="712" y="12" width="16" height="8" fill="#8c3719"/>
    <rect x="728" y="12" width="16" height="8" fill="#b45028"/><rect x="744" y="12" width="16" height="8" fill="#8c3719"/>
    <rect x="760" y="12" width="16" height="8" fill="#b45028"/><rect x="776" y="12" width="16" height="8" fill="#8c3719"/>
    <rect x="792" y="12" width="8" height="8" fill="#b45028"/>
  </g>
</svg>
